<?xml version="1.0" encoding="utf-8"?>

<svg version="1.1" id="Layer_1" xmlns="http://www.w3.org/2000/svg" xmlns:xlink="http://www.w3.org/1999/xlink" x="0px" y="0px"
	 viewBox="0 0 200 82" style="enable-background:new 0 0 200 82;" width="200px" height="82px"   xml:space="preserve">
<style type="text/css">
	.st0{fill:#FFFFFF;}
	.st1{fill:#467BAE;}
	.st2{fill:#244093;}
	.st3{fill:#C6202E;}
	.st4{fill:#808285;}
	.st5{fill:#A7D1EF;}
	.st6{fill:#75BFEB;}
	.st7{fill:#A1CA62;}
	.st8{fill:#697F42;}
</style>
<path class="st0" d="M187.2,73.6H12.7c-6.6,0-12-5.4-12-12V20.4c0-6.6,5.4-12,12-12h174.5c6.6,0,12,5.4,12,12v41.2
	C199.2,68.2,193.8,73.6,187.2,73.6z"/>
<path class="st1" d="M65.3,21.3c-7.6,0-13,5.6-13,12.8c0,7.6,5.3,12.5,12.7,12.5c7.9,0,13.2-4.8,13.2-12.8
	C78.1,26.4,72.9,21.3,65.3,21.3z M65.6,44.9c-6,0-7.5-7.2-7.5-11.6c0-6.1,2.4-10.3,6.9-10.3c4.5,0,7.3,5.1,7.3,11.3
	C72.3,40.2,70.4,44.9,65.6,44.9z"/>
<g>
	<path class="st2" d="M88,64c0.4-0.2,0.8-0.4,1.3-0.4c1.1,0,1.5,0.5,1.5,1.6v1.6c0,0.4,0,0.6,0,0.8h-0.7v-0.5h0
		c-0.2,0.2-0.5,0.6-1.2,0.6c-0.8,0-1.4-0.4-1.4-1.2c0-1,1.1-1.3,1.8-1.3c0.3,0,0.5,0,0.8,0c0-0.7-0.2-1-0.9-1
		c-0.4,0-0.8,0.2-1.1,0.4L88,64z M90.1,65.7c-0.2,0-0.3,0-0.5,0c-0.4,0-1.3,0.1-1.3,0.7c0,0.4,0.4,0.6,0.7,0.6c0.7,0,1.1-0.4,1.1-1
		V65.7z"/>
	<path class="st2" d="M92.2,63.7h0.7v0.6h0c0.3-0.4,0.7-0.6,1.2-0.6c0.4,0,0.9,0.2,1.1,0.7c0.3-0.5,0.8-0.7,1.2-0.7
		c1,0,1.3,0.6,1.3,1.5v2.5H97v-2.3c0-0.5-0.1-1.1-0.7-1.1c-0.7,0-1,0.7-1,1.4v1.9h-0.7v-2.3c0-0.5-0.1-1.1-0.7-1.1
		c-0.7,0-1,0.7-1,1.4v1.9h-0.7V63.7z"/>
	<path class="st2" d="M102,67.4c-0.3,0.1-0.6,0.2-1.2,0.2c-1.4,0-2-0.8-2-2.1c0-1.1,0.7-1.9,1.8-1.9c1.3,0,1.7,0.9,1.7,2.2h-2.7
		c0,0.8,0.6,1.3,1.3,1.3c0.5,0,1-0.2,1.2-0.4V67.4z M101.6,65.3c0-0.6-0.3-1.1-1-1.1c-0.7,0-1,0.6-1,1.1H101.6z"/>
	<path class="st2" d="M103.5,63.7h0.7v0.6h0c0.2-0.4,0.6-0.7,1-0.7c0.2,0,0.3,0,0.5,0.1v0.6c-0.1-0.1-0.3-0.1-0.4-0.1
		c-0.6,0-1,0.6-1,1.6v1.7h-0.7V63.7z"/>
	<path class="st2" d="M106.7,63.7h0.7v3.8h-0.7V63.7z"/>
	<path class="st2" d="M111.3,64.4c-0.3-0.1-0.5-0.2-0.8-0.2c-0.8,0-1.2,0.7-1.2,1.4c0,0.7,0.4,1.4,1.3,1.4c0.2,0,0.5-0.1,0.8-0.2
		l0.1,0.6c-0.3,0.1-0.6,0.2-0.9,0.2c-1.2,0-2-0.9-2-2c0-1.2,0.8-2,2-2c0.3,0,0.7,0.1,0.9,0.2L111.3,64.4z"/>
	<path class="st2" d="M112.6,64c0.4-0.2,0.8-0.4,1.3-0.4c1.1,0,1.5,0.5,1.5,1.6v1.6c0,0.4,0,0.6,0,0.8h-0.7v-0.5h0
		c-0.2,0.2-0.5,0.6-1.2,0.6c-0.8,0-1.4-0.4-1.4-1.2c0-1,1.1-1.3,1.8-1.3c0.3,0,0.5,0,0.8,0c0-0.7-0.2-1-0.9-1
		c-0.4,0-0.8,0.2-1.1,0.4L112.6,64z M114.7,65.7c-0.2,0-0.3,0-0.5,0c-0.4,0-1.3,0.1-1.3,0.7c0,0.4,0.4,0.6,0.7,0.6
		c0.7,0,1.1-0.4,1.1-1V65.7z"/>
	<path class="st2" d="M116.7,63.7h0.7v0.6h0c0.2-0.4,0.7-0.7,1.3-0.7c1,0,1.4,0.6,1.4,1.6v2.3h-0.7v-2c0-0.9-0.2-1.3-0.8-1.4
		c-0.8,0-1.2,0.6-1.2,1.6v1.8h-0.7V63.7z"/>
	<path class="st3" d="M120.8,68.3c0.1,0,0.2,0,0.3,0c0.4,0,0.5-0.4,0.5-0.8v-3.9h1.4v4c0,1-0.3,1.6-1.4,1.6c-0.3,0-0.5,0-0.8-0.1
		L120.8,68.3z"/>
	<path class="st3" d="M123.9,65.6c0-1.3,1-2.1,2.3-2.1c1.3,0,2.3,0.8,2.3,2.1c0,1.3-1,2-2.3,2C124.8,67.7,123.9,66.9,123.9,65.6z
		 M127,65.6c0-0.6-0.3-1.1-0.9-1.1c-0.6,0-0.9,0.5-0.9,1.1c0,0.6,0.3,1.1,0.9,1.1C126.8,66.7,127,66.2,127,65.6z"/>
	<path class="st3" d="M129.2,61.9h1.4v2.2h0c0.3-0.4,0.8-0.6,1.3-0.6c1.1,0,1.7,1,1.7,2c0,1.2-0.6,2.1-1.8,2.1
		c-0.6,0-1.2-0.4-1.3-0.8h0v0.7h-1.2V61.9z M131.4,64.6c-0.5,0-0.8,0.4-0.8,1c0,0.6,0.4,1,0.8,1c0.5,0,0.8-0.4,0.8-1.1
		C132.2,65,131.9,64.6,131.4,64.6z"/>
	<path class="st2" d="M137.1,64.4c-0.3-0.1-0.5-0.2-0.8-0.2c-0.8,0-1.2,0.7-1.2,1.4c0,0.7,0.4,1.4,1.3,1.4c0.2,0,0.5-0.1,0.8-0.2
		l0.1,0.6c-0.3,0.1-0.6,0.2-0.9,0.2c-1.2,0-2-0.9-2-2c0-1.2,0.8-2,2-2c0.3,0,0.7,0.1,0.9,0.2L137.1,64.4z"/>
	<path class="st2" d="M141.1,67.4c-0.3,0.1-0.6,0.2-1.2,0.2c-1.4,0-2-0.8-2-2.1c0-1.1,0.7-1.9,1.8-1.9c1.3,0,1.7,0.9,1.7,2.2h-2.7
		c0,0.8,0.6,1.3,1.3,1.3c0.5,0,1-0.2,1.2-0.4V67.4z M140.6,65.3c0-0.6-0.3-1.1-1-1.1c-0.7,0-1,0.6-1,1.1H140.6z"/>
	<path class="st2" d="M142.5,63.7h0.7v0.6h0c0.2-0.4,0.7-0.7,1.3-0.7c1,0,1.4,0.6,1.4,1.6v2.3h-0.7v-2c0-0.9-0.2-1.3-0.8-1.4
		c-0.8,0-1.2,0.6-1.2,1.6v1.8h-0.7V63.7z"/>
	<path class="st2" d="M149.3,64.3h-1v2.1c0,0.4,0.3,0.7,0.6,0.7c0.2,0,0.4-0.1,0.5-0.1v0.6c-0.2,0-0.4,0.1-0.6,0.1
		c-0.7,0-1.2-0.3-1.2-1.1v-2.2h-0.9v-0.6h0.9v-0.9l0.7-0.2v1.1h1V64.3z"/>
	<path class="st2" d="M153.4,67.4c-0.3,0.1-0.6,0.2-1.2,0.2c-1.4,0-2-0.8-2-2.1c0-1.1,0.7-1.9,1.8-1.9c1.3,0,1.7,0.9,1.7,2.2h-2.7
		c0,0.8,0.6,1.3,1.3,1.3c0.5,0,1-0.2,1.2-0.4V67.4z M152.9,65.3c0-0.6-0.3-1.1-1-1.1c-0.7,0-1,0.6-1,1.1H152.9z"/>
	<path class="st2" d="M154.8,63.7h0.7v0.6h0c0.2-0.4,0.6-0.7,1-0.7c0.2,0,0.3,0,0.5,0.1v0.6c-0.1-0.1-0.3-0.1-0.4-0.1
		c-0.6,0-1,0.6-1,1.6v1.7h-0.7V63.7z"/>
</g>
<g>
	<path class="st2" d="M121,59.9c0,0-0.2-0.2-0.5-0.3c-0.3-0.2-0.7-0.4-1.4-0.6c-0.6-0.2-1.4-0.3-2.4-0.3c-0.9,0-2,0.1-3,0.4
		c-1,0.2-2,0.5-3,0.9c-0.9,0.4-1.7,0.8-2.4,1.1c-0.3,0.2-0.6,0.4-0.8,0.5c-0.2,0.1-0.3,0.3-0.3,0.3c0,0,0,0,0,0c0,0,0,0,0,0
		c0,0,0,0,0,0c-0.1,0-0.1-0.1-0.2-0.1c-0.1-0.1-0.1-0.1-0.1-0.2c-0.1-0.2,0-0.4,0-0.7c0.5-0.3,1.1-0.6,1.7-0.9
		c0.6-0.3,1.2-0.5,1.9-0.7c1.3-0.4,2.6-0.7,4-0.8c1.3-0.1,2.6-0.1,3.8,0.1c0.6,0.1,1.1,0.3,1.5,0.5C120.3,59.3,120.7,59.6,121,59.9z
		"/>
</g>
<polygon class="st3" points="120.3,58.5 121,59.9 119.8,60.5 121.3,60.8 121.9,62.3 122.2,61 123.7,61.4 122.4,60.3 122.7,59 
	121.6,59.6 "/>
<g>
	<g>
		<path class="st4" d="M11.5,66l-0.6,1.7h-0.7l1.9-5.4h0.8l1.9,5.4H14L13.4,66H11.5z M13.2,65.4l-0.5-1.6c-0.1-0.4-0.2-0.7-0.3-1h0
			c-0.1,0.3-0.2,0.7-0.3,1l-0.5,1.6H13.2z"/>
		<path class="st4" d="M17.2,65c0-0.5,0-0.9,0-1.3h0.6l0,0.7h0c0.3-0.5,0.7-0.7,1.4-0.7c0.9,0,1.7,0.8,1.7,2c0,1.4-0.9,2.1-1.8,2.1
			c-0.5,0-1-0.2-1.2-0.6h0v2.1h-0.7V65z M17.9,66.1c0,0.1,0,0.2,0,0.3c0.1,0.5,0.6,0.8,1.1,0.8c0.7,0,1.2-0.6,1.2-1.5
			c0-0.8-0.4-1.4-1.2-1.4c-0.5,0-0.9,0.3-1.1,0.9c0,0.1,0,0.2,0,0.3V66.1z"/>
		<path class="st4" d="M21.8,65c0-0.5,0-0.9,0-1.2h0.6l0,0.8h0c0.2-0.5,0.6-0.9,1.1-0.9c0.1,0,0.1,0,0.2,0v0.7c-0.1,0-0.1,0-0.2,0
			c-0.5,0-0.9,0.4-0.9,0.9c0,0.1,0,0.2,0,0.3v2.1h-0.7V65z"/>
		<path class="st4" d="M27.8,65.7c0,1.4-1,2.1-1.9,2.1c-1,0-1.9-0.8-1.9-2c0-1.3,0.9-2.1,1.9-2.1C27.1,63.7,27.8,64.5,27.8,65.7z
			 M24.8,65.7c0,0.9,0.5,1.5,1.2,1.5c0.7,0,1.2-0.6,1.2-1.5c0-0.7-0.3-1.5-1.2-1.5C25.1,64.2,24.8,65,24.8,65.7z"/>
		<path class="st4" d="M32,66.6c0,0.4,0,0.8,0,1.1h-0.6l0-0.6h0c-0.2,0.3-0.6,0.7-1.3,0.7c-0.6,0-1.3-0.3-1.3-1.7v-2.3h0.7v2.1
			c0,0.7,0.2,1.2,0.9,1.2c0.5,0,0.8-0.3,0.9-0.7c0-0.1,0.1-0.2,0.1-0.4v-2.4H32V66.6z"/>
		<path class="st4" d="M36.5,61.9v4.7c0,0.3,0,0.7,0,1h-0.6l0-0.7h0c-0.2,0.4-0.7,0.8-1.3,0.8c-0.9,0-1.7-0.8-1.7-2
			c0-1.3,0.8-2.1,1.7-2.1c0.6,0,1,0.3,1.2,0.6h0v-2.3H36.5z M35.8,65.4c0-0.1,0-0.2,0-0.3c-0.1-0.4-0.5-0.8-1-0.8
			c-0.7,0-1.2,0.6-1.2,1.5c0,0.8,0.4,1.4,1.2,1.4c0.5,0,0.9-0.3,1-0.8c0-0.1,0-0.2,0-0.3V65.4z"/>
		<path class="st4" d="M39.4,65c0-0.5,0-0.9,0-1.3H40l0,0.7h0c0.3-0.5,0.7-0.7,1.4-0.7c0.9,0,1.7,0.8,1.7,2c0,1.4-0.9,2.1-1.8,2.1
			c-0.5,0-1-0.2-1.2-0.6h0v2.1h-0.7V65z M40.1,66.1c0,0.1,0,0.2,0,0.3c0.1,0.5,0.6,0.8,1.1,0.8c0.7,0,1.2-0.6,1.2-1.5
			c0-0.8-0.4-1.4-1.2-1.4c-0.5,0-0.9,0.3-1.1,0.9c0,0.1,0,0.2,0,0.3V66.1z"/>
		<path class="st4" d="M46.7,66.7c0,0.3,0,0.7,0.1,0.9h-0.6l-0.1-0.5h0c-0.2,0.3-0.6,0.6-1.2,0.6c-0.8,0-1.2-0.6-1.2-1.1
			c0-0.9,0.8-1.5,2.3-1.4v-0.1c0-0.3-0.1-0.9-0.9-0.9c-0.4,0-0.7,0.1-1,0.3L44,64c0.3-0.2,0.8-0.3,1.3-0.3c1.2,0,1.5,0.8,1.5,1.6
			V66.7z M46.1,65.7c-0.8,0-1.7,0.1-1.7,0.9c0,0.5,0.3,0.7,0.7,0.7c0.5,0,0.8-0.3,1-0.7c0-0.1,0-0.2,0-0.2V65.7z"/>
		<path class="st4" d="M47.9,65c0-0.5,0-0.9,0-1.2h0.6l0,0.8h0c0.2-0.5,0.6-0.9,1.1-0.9c0.1,0,0.1,0,0.2,0v0.7c-0.1,0-0.1,0-0.2,0
			c-0.5,0-0.9,0.4-0.9,0.9c0,0.1,0,0.2,0,0.3v2.1h-0.7V65z"/>
		<path class="st4" d="M51.6,62.8v0.9h1v0.5h-1v2.1c0,0.5,0.1,0.8,0.5,0.8c0.2,0,0.3,0,0.4,0l0,0.5c-0.1,0-0.4,0.1-0.6,0.1
			c-0.3,0-0.6-0.1-0.8-0.3c-0.2-0.2-0.3-0.6-0.3-1v-2.1h-0.6v-0.5h0.6V63L51.6,62.8z"/>
		<path class="st4" d="M53.4,64.8c0-0.4,0-0.7,0-1.1H54l0,0.6h0c0.2-0.4,0.6-0.7,1.3-0.7c0.5,0,1.4,0.3,1.4,1.7v2.3H56v-2.2
			c0-0.6-0.2-1.2-0.9-1.2c-0.5,0-0.8,0.3-0.9,0.7c0,0.1,0,0.2,0,0.3v2.3h-0.7V64.8z"/>
		<path class="st4" d="M58.2,65.8c0,1,0.6,1.4,1.3,1.4c0.5,0,0.8-0.1,1.1-0.2l0.1,0.5c-0.2,0.1-0.7,0.2-1.3,0.2
			c-1.2,0-1.9-0.8-1.9-2c0-1.2,0.7-2.1,1.8-2.1c1.3,0,1.6,1.1,1.6,1.8c0,0.1,0,0.2,0,0.3H58.2z M60.3,65.3c0-0.4-0.2-1.1-1-1.1
			c-0.7,0-1,0.7-1.1,1.1H60.3z"/>
		<path class="st4" d="M61.9,65c0-0.5,0-0.9,0-1.2h0.6l0,0.8h0c0.2-0.5,0.6-0.9,1.1-0.9c0.1,0,0.1,0,0.2,0v0.7c-0.1,0-0.1,0-0.2,0
			c-0.5,0-0.9,0.4-0.9,0.9c0,0.1,0,0.2,0,0.3v2.1h-0.7V65z"/>
		<path class="st4" d="M69.7,65.7c0,1.4-1,2.1-1.9,2.1c-1,0-1.9-0.8-1.9-2c0-1.3,0.9-2.1,1.9-2.1C69,63.7,69.7,64.5,69.7,65.7z
			 M66.7,65.7c0,0.9,0.5,1.5,1.2,1.5c0.7,0,1.2-0.6,1.2-1.5c0-0.7-0.3-1.5-1.2-1.5C67,64.2,66.7,65,66.7,65.7z"/>
		<path class="st4" d="M70.7,67.7v-3.4h-0.5v-0.5h0.5v-0.2c0-0.5,0.1-1,0.5-1.4c0.3-0.3,0.6-0.4,0.9-0.4c0.3,0,0.5,0.1,0.6,0.1
			l-0.1,0.5c-0.1,0-0.2-0.1-0.5-0.1c-0.6,0-0.8,0.5-0.8,1.1v0.2h0.9v0.5h-0.9v3.4H70.7z"/>
		<path class="st4" d="M75.5,62.8v0.9h1v0.5h-1v2.1c0,0.5,0.1,0.8,0.5,0.8c0.2,0,0.3,0,0.4,0l0,0.5c-0.1,0-0.4,0.1-0.6,0.1
			c-0.3,0-0.6-0.1-0.8-0.3c-0.2-0.2-0.3-0.6-0.3-1v-2.1h-0.6v-0.5h0.6V63L75.5,62.8z"/>
		<path class="st4" d="M77.4,61.9h0.7v2.4h0c0.1-0.2,0.3-0.4,0.5-0.5c0.2-0.1,0.5-0.2,0.7-0.2c0.5,0,1.4,0.3,1.4,1.7v2.3H80v-2.2
			c0-0.6-0.2-1.2-0.9-1.2c-0.5,0-0.8,0.3-0.9,0.7c0,0.1,0,0.2,0,0.3v2.4h-0.7V61.9z"/>
		<path class="st4" d="M82.2,65.8c0,1,0.6,1.4,1.3,1.4c0.5,0,0.8-0.1,1.1-0.2l0.1,0.5c-0.2,0.1-0.7,0.2-1.3,0.2
			c-1.2,0-1.9-0.8-1.9-2c0-1.2,0.7-2.1,1.8-2.1c1.3,0,1.6,1.1,1.6,1.8c0,0.1,0,0.2,0,0.3H82.2z M84.3,65.3c0-0.4-0.2-1.1-1-1.1
			c-0.7,0-1,0.7-1.1,1.1H84.3z"/>
	</g>
	<path class="st4" d="M159.4,64.9c0-0.4,0-0.7,0-1.1h0.6l0,0.6h0c0.2-0.4,0.6-0.7,1.3-0.7c0.5,0,1.4,0.3,1.4,1.7v2.3H162v-2.2
		c0-0.6-0.2-1.2-0.9-1.2c-0.5,0-0.8,0.3-0.9,0.7c0,0.1,0,0.2,0,0.3v2.3h-0.7V64.9z"/>
	<path class="st4" d="M164.3,65.9c0,1,0.6,1.4,1.3,1.4c0.5,0,0.8-0.1,1.1-0.2l0.1,0.5c-0.2,0.1-0.7,0.2-1.3,0.2
		c-1.2,0-1.9-0.8-1.9-2c0-1.2,0.7-2.1,1.8-2.1c1.3,0,1.6,1.1,1.6,1.8c0,0.1,0,0.2,0,0.3H164.3z M166.4,65.4c0-0.4-0.2-1.1-1-1.1
		c-0.7,0-1,0.7-1.1,1.1H166.4z"/>
	<path class="st4" d="M168.8,62.9v0.9h1v0.5h-1v2.1c0,0.5,0.1,0.8,0.5,0.8c0.2,0,0.3,0,0.4,0l0,0.5c-0.1,0-0.4,0.1-0.6,0.1
		c-0.3,0-0.6-0.1-0.8-0.3c-0.2-0.2-0.3-0.6-0.3-1v-2.1h-0.6v-0.5h0.6v-0.7L168.8,62.9z"/>
	<path class="st4" d="M171,63.8l0.5,2c0.1,0.4,0.2,0.8,0.3,1.2h0c0.1-0.4,0.2-0.8,0.3-1.2l0.6-2h0.6l0.6,1.9
		c0.1,0.5,0.3,0.9,0.3,1.3h0c0.1-0.4,0.2-0.8,0.3-1.3l0.6-2h0.7l-1.3,3.9H174l-0.6-1.9c-0.1-0.4-0.2-0.8-0.3-1.3h0
		c-0.1,0.5-0.2,0.9-0.4,1.3l-0.6,1.9h-0.6l-1.2-3.9H171z"/>
	<path class="st4" d="M180,65.7c0,1.4-1,2.1-1.9,2.1c-1,0-1.9-0.8-1.9-2c0-1.3,0.9-2.1,1.9-2.1C179.3,63.7,180,64.5,180,65.7z
		 M177,65.8c0,0.9,0.5,1.5,1.2,1.5c0.7,0,1.2-0.6,1.2-1.5c0-0.7-0.3-1.5-1.2-1.5C177.3,64.2,177,65,177,65.8z"/>
	<path class="st4" d="M180.9,65c0-0.5,0-0.9,0-1.2h0.6l0,0.8h0c0.2-0.5,0.6-0.9,1.1-0.9c0.1,0,0.1,0,0.2,0v0.7c-0.1,0-0.1,0-0.2,0
		c-0.5,0-0.9,0.4-0.9,0.9c0,0.1,0,0.2,0,0.3v2.1h-0.7V65z"/>
	<path class="st4" d="M184.3,65.6L184.3,65.6c0.1-0.1,0.2-0.3,0.4-0.4l1.2-1.3h0.8l-1.5,1.6l1.7,2.3H186l-1.3-1.9l-0.4,0.4v1.5h-0.7
		V62h0.7V65.6z"/>
</g>
<g>
	<path class="st0" d="M56.9,41.1L56.9,41.1c-2.2-1.8-1.6-4.1-1.6-4.1l0-0.1l0.1,0c4.5-0.2,4.9-0.7,7.5-3.5l0.4-0.5
		c3-3.4,5.4-2.5,5.5-2.5l0.4,0.2L69,30.6c-2.7,1.4-3.8,3.6-4.8,5.7c-0.3,0.6-0.6,1.2-0.9,1.8C61.8,40.4,57.2,41,56.9,41.1L56.9,41.1
		z M55.7,37.2c-0.1,0.5-0.2,2.1,1.3,3.5c0.6-0.1,4.6-0.8,5.8-2.8c0.3-0.5,0.6-1.1,0.9-1.7c1-1.9,2-4.1,4.5-5.5
		c-0.8,0-2.5,0.3-4.5,2.5l-0.4,0.5C60.8,36.4,60.2,37,55.7,37.2z"/>
</g>
<path class="st5" d="M64.1,36.3c-0.3,0.6-0.6,1.2-0.9,1.8c-1.2,2-4.9,2.8-5.9,3C58,41.6,59,42,60.1,42c2.6,0,4.7-2.1,4.7-4.7
	c0-0.6-0.1-1.1-0.3-1.6C64.3,35.9,64.2,36.1,64.1,36.3z"/>
<path class="st5" d="M55.5,36.8c4.3-0.2,4.9-0.7,7.3-3.3c-0.8-0.6-1.7-0.9-2.7-0.9C57.7,32.6,55.7,34.4,55.5,36.8L55.5,36.8z"/>
<path class="st1" d="M69.3,30.5c0,0-0.1,0-0.1,0L69,30.6c-2.7,1.4-3.8,3.6-4.8,5.7c-0.3,0.6-0.6,1.2-0.9,1.8
	c-0.1,0.2-0.2,0.3-0.4,0.5c0.6,3,3.3,5.3,6.5,5.3c3.7,0,6.7-3,6.7-6.7S73,30.5,69.3,30.5z"/>
<path class="st6" d="M60.1,36c0.9-0.5,1.7-1.3,2.9-2.7l0.4-0.5c3-3.4,5.4-2.5,5.5-2.5l0.3,0.1c-0.2-3.1-2.8-5.6-6-5.6
	c-3.3,0-6,2.7-6,6C57.2,33,58.3,34.9,60.1,36z"/>
<path class="st7" d="M55.5,37.2c-0.1,0.5-0.2,2.1,1.3,3.5c0.6-0.1,4.8-0.8,6-2.8c0.3-0.5,0.6-1.1,0.9-1.7c1-1.9,2-4.1,4.5-5.5
	c-0.8,0-2.5,0.3-4.5,2.5l-0.4,0.5C60.8,36.4,60.1,37,55.5,37.2z"/>
<path class="st1" d="M13.8,15.4c-0.4-0.4-0.4-1.6,0.1-1.7c1.7,0.1,3.8,0.1,6.1,0.1c1.6,0,3,0,4.8-0.1c0,3,1.7,6,3.8,10.6l3.2,6.9
	c0.4,1,2.2,4,2.9,5.3c0.6-1.2,1.4-2.7,2.7-5.6l2.5-5.4c2.3-5,3.6-7.6,4.6-11.8c2.2,0.2,3.4,0.1,4.8,0.1c1.6,0,3.8,0,5.6-0.1
	c0.5,0.3,0.5,1.2,0.1,1.7l-1.4,0.2c-2,0.3-3,0.9-3,3.5c0,10,0.1,15.3,0.4,21.4c0.1,2.2,0.3,3.4,2.2,3.7l1.6,0.2
	c0.4,0.4,0.4,1.5-0.1,1.7C52.7,46,50.6,46,48.2,46c-2.2,0-4.9,0-7.2,0.1c-0.6-0.2-0.6-1.4-0.1-1.7l1.5-0.2c2.2-0.3,2.2-0.9,2.2-3.8
	l-0.1-12.7v-5.6h-0.1c-3.6,7.8-7.5,15.9-10.7,24.2c-0.2,0.2-0.6,0.3-1,0.3c-0.4,0-1-0.1-1.3-0.3c-1.9-6-7.9-18.1-10.6-24.5h-0.1
	c-0.2,3.2-0.2,5.3-0.3,7.8c0,3.2-0.1,8-0.1,11c0,2.4,0.3,3.1,2.2,3.4l1.9,0.3c0.4,0.3,0.3,1.5-0.1,1.7C22.5,46,20.4,46,18.6,46
	c-1.6,0-3.4,0-5.4,0.1c-0.6-0.2-0.6-1.5-0.2-1.7l0.9-0.1c2.5-0.4,2.8-0.7,3.1-3.8c0.2-2.4,0.4-6.6,0.7-11.3c0.2-3.3,0.3-7.2,0.3-9.8
	c0-2.8-1.1-3.5-3-3.8L13.8,15.4z"/>
<path class="st1" d="M83.1,20.9c0-4.6-0.3-4.9-2.5-5.3l-1.9-0.3c-0.4-0.3-0.4-1.4,0-1.7c3.1,0.1,5.6,0.1,7.8,0.1
	c2.3,0,4.8,0,7.3-0.1c0.4,0.3,0.4,1.4,0,1.7l-1.3,0.2c-2.2,0.4-2.5,0.7-2.5,5.3v17.6c0,3.8-0.3,7.2-1.1,9.4
	c-1.7,4.3-5.2,7.6-11.4,7.8c-1.4,0-3.7-0.3-3.7-1.9c0-0.9,0.6-2.1,1.3-2.8c0.4-0.4,0.8-0.6,1.4-0.6c0.8,0,1.7,0.6,2.5,1.2
	s1.6,1.2,2.1,1.2c1.1,0,1.4-2.3,1.6-4c0.1-0.8,0.4-4.4,0.4-9.5V20.9z"/>
<path class="st1" d="M104.6,21.3c-7.6,0-13,5.6-13,12.8c0,7.6,5.3,12.5,12.7,12.5c7.9,0,13.2-4.8,13.2-12.8
	C117.4,26.4,112.2,21.3,104.6,21.3z M104.9,44.9c-6,0-7.5-7.2-7.5-11.6c0-6.1,2.4-10.3,6.9-10.3c4.5,0,7.3,5.1,7.3,11.3
	C111.6,40.2,109.7,44.9,104.9,44.9z"/>
<path class="st1" d="M132.7,33c-0.3-0.1-0.5-0.2-0.5-0.3c0-0.2,0.4-0.3,0.7-0.4c1.1-0.3,3.7-1.5,3.7-4.6c0-2.2-1-3.7-2.5-4.6
	c-1.6-1-3.9-1.4-7.5-1.4c-3.7,0-6.3,0.1-9.1,0.3c-0.5,0-0.5,1.1-0.1,1.3l1,0.1c1.5,0.2,1.6,0.6,1.6,4.3v12.9c0,3.3-0.2,3.5-1.9,3.9
	l-1.1,0.2c-0.3,0.1-0.3,1.1,0,1.3c2.1-0.1,3.9-0.1,5.7-0.1c1.1,0,2.4,0.1,3.8,0.1c2.2,0,5-0.1,7.3-0.9c2.3-0.8,4.3-2.8,4.3-6.1
	C138,35.5,135.6,33.6,132.7,33z M125,25.3c0-1.6,0-1.9,1.8-1.9c2.5,0,4.5,1.6,4.5,4.8c0,2.2-1.2,4.2-4.3,4.2c-1.9,0-1.9-0.1-1.9-1
	V25.3z M128.3,44.4c-2.9,0-3.2-1.8-3.2-4.6v-4.3c0-1.5,0-1.5,2-1.5c3.5,0,5.3,2.2,5.3,5.4C132.4,42.4,131,44.4,128.3,44.4z"/>
<path class="st1" d="M144.1,46.6c-3.4,0-5.4-1-6.2-1.4c-0.7-0.8-1.2-3.4-1.2-5.9c0.3-0.5,1.1-0.5,1.4-0.1c0.7,2.4,3.2,5.7,6.3,5.7
	c2.7,0,3.9-1.9,3.9-3.7c0-3-2.8-4.7-5-5.8c-2.6-1.3-5.5-3.5-5.5-7.1c0-4.1,3.2-7,8.5-7c1.2,0,2.7,0.1,4.2,0.6
	c0.5,0.1,0.8,0.2,1.2,0.3c0.3,0.8,0.7,2.8,0.7,5.2c-0.2,0.4-1.1,0.5-1.4,0.1c-0.6-1.9-2.2-4.5-4.8-4.5c-2.4,0-3.7,1.6-3.7,3.4
	c0,1.7,1.5,3.2,3.3,4.2l2.4,1.3c2.3,1.2,5.2,3.3,5.2,7.3C153.3,43.6,149.6,46.6,144.1,46.6z"/>
<path class="st8" d="M96,51.6c0.2,0.4,0.4,0.8,0.6,1.3h0c0.2-0.4,0.5-0.9,0.7-1.4l0.9-1.7c0.4-0.8,0.7-1.3,0.7-1.8
	c0.3,0,0.5,0,0.7,0c0.2,0,0.5,0,0.8,0c0.1,0,0.1,0.2,0,0.2l-0.2,0c-0.6,0.1-0.6,0.2-0.6,0.9c0,1,0,2.7,0.1,4c0,0.5,0,0.7,0.4,0.7
	l0.3,0c0.1,0.1,0,0.2,0,0.2c-0.4,0-0.7,0-1.1,0c-0.3,0-0.7,0-1.1,0c-0.1,0-0.1-0.2,0-0.2l0.3,0c0.4,0,0.4-0.2,0.4-0.8l0-3.8h0
	c-0.1,0.1-0.4,0.8-0.6,1.2l-0.8,1.6c-0.4,0.8-0.8,1.7-1,2.1c0,0-0.1,0-0.1,0c0,0-0.1,0-0.1,0c-0.2-0.5-0.6-1.4-0.8-1.8l-0.8-1.8
	c-0.2-0.4-0.4-0.9-0.6-1.3h0c0,0.6-0.1,1.1-0.1,1.6c0,0.6-0.1,1.4-0.1,2.1c0,0.7,0.1,0.8,0.4,0.8l0.3,0c0.1,0.1,0.1,0.2,0,0.2
	c-0.3,0-0.7,0-1,0c-0.3,0-0.6,0-0.9,0c-0.1,0-0.1-0.2,0-0.2l0.2,0c0.4-0.1,0.5-0.1,0.6-0.7c0.1-0.6,0.1-1.1,0.2-2
	c0-0.8,0.1-1.5,0.1-2c0-0.6-0.1-0.7-0.6-0.8l-0.1,0c0-0.1,0-0.2,0-0.2c0.3,0,0.5,0,0.7,0c0.2,0,0.5,0,0.8,0c0,0.4,0.2,0.9,0.5,1.5
	L96,51.6z M100.8,51.5c0-0.4,0-0.4-0.2-0.6l-0.1-0.1c0,0,0-0.1,0-0.2c0.2-0.1,0.7-0.3,0.9-0.4c0,0,0.1,0,0.1,0.1c0,0.3,0,0.8,0,1.1
	v1.6c0,0.7,0,0.7,0.3,0.8l0.2,0c0.1,0,0,0.2,0,0.2c-0.3,0-0.5,0-0.9,0c-0.3,0-0.6,0-0.9,0c-0.1,0-0.1-0.2,0-0.2l0.2,0
	c0.3,0,0.3-0.1,0.3-0.8V51.5z M101.6,48.9c0,0.3-0.2,0.5-0.5,0.5c-0.3,0-0.5-0.2-0.5-0.5c0-0.3,0.2-0.5,0.5-0.5
	S101.6,48.6,101.6,48.9z M104.3,50.5c0.1,0.2,0.1,0.5,0.1,0.7c0,0.1-0.2,0.1-0.2,0c-0.2-0.4-0.4-0.7-0.8-0.7c-0.4,0-0.6,0.2-0.6,0.6
	c0,0.4,0.4,0.6,0.7,0.8c0.5,0.3,0.9,0.6,0.9,1.2c0,0.7-0.6,1-1.3,1c-0.4,0-0.7-0.1-1-0.3c-0.1-0.2-0.1-0.6-0.1-0.9
	c0-0.1,0.2-0.1,0.2,0c0.2,0.5,0.4,0.9,1,0.9c0.3,0,0.6-0.2,0.6-0.6c0-0.4-0.4-0.6-0.7-0.8c-0.5-0.3-0.9-0.6-0.9-1.1
	c0-0.7,0.5-1,1.2-1C103.9,50.4,104.2,50.4,104.3,50.5z M106.7,50.5c0.1,0.2,0.1,0.5,0.1,0.7c0,0.1-0.2,0.1-0.2,0
	c-0.2-0.4-0.4-0.7-0.8-0.7c-0.4,0-0.6,0.2-0.6,0.6c0,0.4,0.4,0.6,0.7,0.8c0.5,0.3,0.9,0.6,0.9,1.2c0,0.7-0.6,1-1.3,1
	c-0.4,0-0.7-0.1-1-0.3c-0.1-0.2-0.1-0.6-0.1-0.9c0-0.1,0.2-0.1,0.2,0c0.2,0.5,0.4,0.9,1,0.9c0.3,0,0.6-0.2,0.6-0.6
	c0-0.4-0.4-0.6-0.7-0.8c-0.5-0.3-0.9-0.6-0.9-1.1c0-0.7,0.5-1,1.2-1C106.3,50.4,106.6,50.4,106.7,50.5z M110.7,52.2
	c0,1.1-0.8,2-1.9,2c-1.1,0-1.9-0.7-1.9-1.9c0-1.2,0.9-2,1.9-2C109.9,50.4,110.7,51.1,110.7,52.2z M108.8,50.6
	c-0.6,0-1.1,0.6-1.1,1.6c0,0.8,0.4,1.7,1.2,1.7s1.1-0.8,1.1-1.5C109.9,51.6,109.6,50.6,108.8,50.6z M111.9,52.7
	c0,0.6,0.2,1.1,0.8,1.1c0.2,0,0.5-0.1,0.7-0.3c0.1-0.1,0.2-0.2,0.2-0.5v-1.5c0-0.6-0.1-0.6-0.3-0.7l-0.1,0c-0.1,0-0.1-0.2,0-0.2
	c0.4,0,0.9-0.1,1.1-0.2c0,0,0.1,0,0.1,0.1c0,0.2,0,0.5,0,0.8v1.5c0,0.7,0,1,0.3,1c0.1,0,0.2,0,0.4,0c0.1,0,0.1,0.2,0,0.3
	c-0.4,0.1-0.9,0.2-1.2,0.3c0,0-0.1,0-0.1-0.1v-0.4c0-0.1,0-0.1-0.1-0.1c-0.3,0.2-0.7,0.5-1.3,0.5c-0.8,0-1.1-0.4-1.1-1.1v-1.5
	c0-0.6,0-0.7-0.3-0.8l-0.1,0c-0.1,0,0-0.2,0-0.2c0.4,0,0.8-0.1,1-0.2c0.1,0,0.1,0,0.1,0.1c0,0.2,0,0.3,0,0.8V52.7z M115.4,51.5
	c0-0.4,0-0.4-0.2-0.6l-0.1-0.1c0,0,0-0.1,0-0.2c0.2-0.1,0.7-0.3,0.9-0.4c0,0,0.1,0,0.1,0.1v0.5c0,0,0,0.1,0,0.1
	c0.3-0.3,0.7-0.5,1-0.5c0.2,0,0.4,0.1,0.4,0.4c0,0.3-0.2,0.4-0.4,0.4c-0.1,0-0.1,0-0.2-0.1c-0.1-0.1-0.3-0.1-0.4-0.1
	c-0.1,0-0.3,0.1-0.3,0.2c-0.1,0.1-0.1,0.4-0.1,0.7v1.2c0,0.7,0,0.8,0.4,0.8l0.3,0c0.1,0,0,0.2,0,0.2c-0.4,0-0.7,0-1,0
	c-0.3,0-0.6,0-0.8,0c-0.1,0-0.1-0.2,0-0.2l0.2,0c0.3-0.1,0.3-0.1,0.3-0.8V51.5z M117.9,51.5c0-0.4,0-0.4-0.2-0.6l-0.1-0.1
	c0,0,0-0.1,0-0.2c0.2-0.1,0.7-0.3,0.9-0.4c0,0,0.1,0,0.1,0.1c0,0.3,0,0.8,0,1.1v1.6c0,0.7,0,0.7,0.3,0.8l0.2,0c0.1,0,0,0.2,0,0.2
	c-0.3,0-0.5,0-0.9,0c-0.3,0-0.6,0-0.9,0c-0.1,0-0.1-0.2,0-0.2l0.2,0c0.3,0,0.3-0.1,0.3-0.8V51.5z M118.7,48.9c0,0.3-0.2,0.5-0.5,0.5
	c-0.3,0-0.5-0.2-0.5-0.5c0-0.3,0.2-0.5,0.5-0.5C118.5,48.4,118.7,48.6,118.7,48.9z M120.3,48.6c0,0.6-0.5,1.1-1.1,1.2
	c-0.1,0-0.1-0.1-0.1-0.2c0.3-0.2,0.7-0.4,0.7-0.8c0-0.3-0.3-0.5-0.5-0.5c-0.1,0-0.2-0.1-0.2-0.3c0-0.1,0.1-0.4,0.4-0.4
	C120,47.7,120.3,48.1,120.3,48.6z M122.1,50.5c0.1,0.2,0.1,0.5,0.1,0.7c0,0.1-0.2,0.1-0.2,0c-0.2-0.4-0.4-0.7-0.8-0.7
	c-0.4,0-0.6,0.2-0.6,0.6c0,0.4,0.4,0.6,0.7,0.8c0.5,0.3,0.9,0.6,0.9,1.2c0,0.7-0.6,1-1.3,1c-0.4,0-0.7-0.1-1-0.3
	c-0.1-0.2-0.1-0.6-0.1-0.9c0-0.1,0.2-0.1,0.2,0c0.2,0.5,0.4,0.9,1,0.9c0.3,0,0.6-0.2,0.6-0.6c0-0.4-0.4-0.6-0.7-0.8
	c-0.5-0.3-0.9-0.6-0.9-1.1c0-0.7,0.5-1,1.2-1C121.7,50.4,122,50.4,122.1,50.5z M125.1,49.4c0-1-0.1-1.1-0.6-1.2l-0.2,0
	c-0.1,0,0-0.2,0-0.2c0.5,0,0.8,0,1.2,0c0.4,0,0.7,0,1,0c0.1,0,0.1,0.2,0,0.2l-0.1,0c-0.5,0.1-0.6,0.2-0.6,1.2v3.4
	c0,0.7,0,1.4-0.2,1.8c-0.3,0.7-1,1.3-1.8,1.3c-0.1,0-0.4,0-0.4-0.2c0-0.2,0.1-0.4,0.3-0.4c0.1,0,0.2,0,0.3,0.1
	c0.1,0,0.3,0.1,0.4,0.1c0.2,0,0.3-0.1,0.4-0.2c0.2-0.4,0.2-1.8,0.2-2.3V49.4z M130.2,52.2c0,1.1-0.8,2-1.9,2c-1.1,0-1.9-0.7-1.9-1.9
	c0-1.2,0.9-2,1.9-2C129.4,50.4,130.2,51.1,130.2,52.2z M128.3,50.6c-0.6,0-1.1,0.6-1.1,1.6c0,0.8,0.4,1.7,1.2,1.7
	c0.8,0,1.1-0.8,1.1-1.5C129.5,51.6,129.1,50.6,128.3,50.6z M130.7,48.9c0-0.5,0-0.6-0.3-0.8l-0.1-0.1c0,0,0-0.2,0-0.2
	c0.2-0.1,0.6-0.2,1-0.4c0,0,0.1,0,0.1,0.1c0,0.3,0,0.7,0,1.1v1.7c0,0.2,0,0.2,0.1,0.2c0.2-0.1,0.6-0.3,1.1-0.3c1,0,1.7,0.8,1.7,1.8
	c0,1.2-0.9,2.1-2.1,2.1c-0.3,0-0.6-0.1-0.8-0.1C131.2,54,131,54,131,54s-0.1,0.1-0.2,0.1c0,0,0,0,0,0c0,0-0.1,0-0.1-0.1
	c0-0.1,0-0.3,0-0.8V48.9z M131.3,52.8c0,0.3,0.1,0.6,0.2,0.8c0.2,0.2,0.4,0.3,0.7,0.3c0.9,0,1.2-0.7,1.2-1.5c0-0.9-0.5-1.7-1.4-1.7
	c-0.3,0-0.5,0.1-0.6,0.1c-0.1,0.1-0.1,0.2-0.1,0.5V52.8z M137.8,54.2c-0.8,0-1.3-0.2-1.4-0.3c-0.1-0.2-0.2-0.8-0.2-1.3
	c0-0.1,0.2-0.1,0.2,0c0.1,0.5,0.5,1.4,1.6,1.4c0.8,0,1.1-0.5,1.1-1.1c0-0.4-0.1-0.8-0.7-1.3l-0.9-0.6c-0.5-0.3-1-0.8-1-1.6
	c0-0.9,0.7-1.6,1.9-1.6c0.3,0,0.6,0.1,0.8,0.1c0.1,0,0.2,0.1,0.3,0.1c0.1,0.2,0.2,0.7,0.2,1.1c0,0.1-0.2,0.1-0.2,0
	c-0.1-0.4-0.4-1-1.2-1c-0.9,0-1.1,0.6-1.1,1c0,0.5,0.4,0.9,0.8,1.1l0.7,0.5c0.6,0.4,1.1,0.9,1.1,1.8
	C139.7,53.5,138.9,54.2,137.8,54.2z M140.7,51.7c-0.2,0-0.2,0-0.2,0.2c0,0.9,0.5,1.7,1.5,1.7c0.3,0,0.6-0.1,0.8-0.4
	c0.1,0,0.2,0,0.2,0.1c-0.3,0.6-1,0.8-1.4,0.8c-0.6,0-1.1-0.3-1.3-0.6c-0.3-0.4-0.4-0.8-0.4-1.2c0-1.1,0.7-2.1,1.8-2.1
	c0.8,0,1.3,0.5,1.3,1.1c0,0.1,0,0.2,0,0.2c0,0.1-0.2,0.1-0.5,0.1H140.7z M141.2,51.5c0.7,0,0.9,0,1-0.1c0,0,0.1-0.1,0.1-0.2
	c0-0.3-0.2-0.6-0.7-0.6c-0.5,0-1,0.5-1,0.8c0,0,0,0,0.1,0H141.2z M144.7,52.2c0.1,0,0.2-0.1,0.2-0.3l0-0.4c0-0.3-0.1-0.8-0.7-0.8
	c-0.3,0-0.6,0.1-0.6,0.4c0,0.1,0,0.3-0.1,0.3c-0.1,0.1-0.4,0.2-0.5,0.2c-0.1,0-0.1,0-0.1-0.1c0-0.5,1-1.1,1.7-1.1c0.7,0,1,0.4,1,1.1
	l-0.1,1.6c0,0.4,0.1,0.8,0.4,0.8c0.1,0,0.2,0,0.2-0.1c0,0,0.1-0.1,0.1-0.1c0,0,0.1,0.1,0.1,0.1c0,0-0.3,0.4-0.8,0.4
	c-0.2,0-0.4-0.1-0.6-0.3c0-0.1-0.1-0.1-0.1-0.1c-0.1,0-0.2,0.1-0.4,0.2c-0.2,0.1-0.4,0.2-0.7,0.2c-0.3,0-0.5-0.1-0.6-0.2
	c-0.2-0.2-0.3-0.4-0.3-0.6c0-0.4,0.2-0.6,0.8-0.8L144.7,52.2z M144.1,53.8c0.2,0,0.5-0.1,0.6-0.2c0.1-0.1,0.1-0.2,0.1-0.4l0-0.5
	c0-0.1,0-0.1-0.1-0.1c-0.1,0-0.2,0-0.4,0.1c-0.5,0.2-0.8,0.3-0.8,0.7C143.6,53.4,143.7,53.8,144.1,53.8z M146.6,51.5
	c0-0.4,0-0.4-0.2-0.6l-0.1-0.1c0,0,0-0.1,0-0.2c0.2-0.1,0.7-0.3,0.9-0.4c0,0,0.1,0,0.1,0.1v0.5c0,0,0,0.1,0,0.1
	c0.3-0.3,0.7-0.5,1-0.5c0.2,0,0.4,0.1,0.4,0.4c0,0.3-0.2,0.4-0.4,0.4c-0.1,0-0.1,0-0.2-0.1c-0.1-0.1-0.3-0.1-0.4-0.1
	c-0.1,0-0.3,0.1-0.3,0.2c-0.1,0.1-0.1,0.4-0.1,0.7v1.2c0,0.7,0,0.8,0.4,0.8l0.3,0c0.1,0,0,0.2,0,0.2c-0.4,0-0.7,0-1,0
	c-0.3,0-0.6,0-0.8,0c-0.1,0-0.1-0.2,0-0.2l0.2,0c0.3-0.1,0.3-0.1,0.3-0.8V51.5z M151.5,50.5c0.1,0.1,0.1,0.2,0.1,0.4
	c0,0.2-0.1,0.3-0.2,0.3c0,0-0.1,0-0.1-0.1c-0.2-0.2-0.5-0.5-0.9-0.5c-0.6,0-1.3,0.5-1.3,1.5c0,0.7,0.5,1.6,1.5,1.6
	c0.5,0,0.8-0.2,1-0.5c0.1,0,0.2,0,0.2,0.1c-0.3,0.7-1,0.9-1.5,0.9c-0.5,0-0.9-0.2-1.3-0.5c-0.3-0.3-0.5-0.8-0.5-1.4c0-1,0.7-2,2.2-2
	C150.9,50.4,151.2,50.4,151.5,50.5z M152,48.9c0-0.5,0-0.6-0.3-0.8l-0.1-0.1c0,0,0-0.2,0-0.2c0.2-0.1,0.7-0.2,1-0.4
	c0,0,0.1,0,0.1,0.1c0,0.3,0,0.7,0,1.1v1.9c0,0.1,0,0.2,0,0.2c0.3-0.3,0.8-0.5,1.2-0.5c0.9,0,1.2,0.5,1.2,1.2v1.5
	c0,0.7,0,0.8,0.3,0.8l0.2,0c0.1,0,0,0.2,0,0.2c-0.3,0-0.6,0-0.9,0c-0.3,0-0.6,0-0.8,0c-0.1,0-0.1-0.2,0-0.2l0.2,0
	c0.3-0.1,0.3-0.1,0.3-0.8v-1.3c0-0.6-0.3-1-0.9-1c-0.3,0-0.5,0.1-0.7,0.2s-0.2,0.2-0.2,0.5v1.5c0,0.7,0,0.7,0.3,0.8l0.2,0
	c0.1,0,0,0.2,0,0.2c-0.3,0-0.5,0-0.9,0c-0.3,0-0.6,0-0.9,0c-0.1,0-0.1-0.2,0-0.2l0.2,0c0.3,0,0.3-0.1,0.3-0.8V48.9z M158.2,49.4
	c0-0.9,0-1-0.4-1.1l-0.3,0c-0.1,0-0.1-0.2,0-0.2c0.5,0,1.1-0.1,2-0.1c0.6,0,1.1,0,1.5,0.3c0.4,0.2,0.8,0.6,0.8,1.3
	c0,0.9-0.7,1.3-1.1,1.5c0,0.1,0,0.1,0,0.2c0.7,1.2,1.2,1.9,1.8,2.4c0.2,0.1,0.4,0.2,0.6,0.3c0,0,0.1,0.1,0,0.1c-0.1,0-0.2,0-0.4,0
	c-0.8,0-1.2-0.2-1.9-1.2c-0.2-0.3-0.6-1-0.9-1.4c-0.1-0.2-0.3-0.3-0.6-0.3c-0.4,0-0.4,0-0.4,0.2v1.2c0,1,0,1.1,0.5,1.1l0.2,0
	c0.1,0,0,0.2,0,0.2c-0.4,0-0.7,0-1.1,0c-0.4,0-0.7,0-1.1,0c-0.1,0-0.1-0.2,0-0.2l0.2,0c0.5-0.1,0.5-0.2,0.5-1.1V49.4z M159,50.7
	c0,0.2,0,0.3,0,0.3c0,0,0.2,0,0.6,0c0.3,0,0.7,0,0.9-0.2c0.2-0.2,0.5-0.5,0.5-1.1c0-0.7-0.4-1.4-1.5-1.4c-0.6,0-0.6,0-0.6,0.3V50.7z
	 M163.4,51.7c-0.2,0-0.2,0-0.2,0.2c0,0.9,0.5,1.7,1.5,1.7c0.3,0,0.6-0.1,0.8-0.4c0.1,0,0.2,0,0.2,0.1c-0.3,0.6-1,0.8-1.4,0.8
	c-0.6,0-1.1-0.3-1.3-0.6c-0.3-0.4-0.4-0.8-0.4-1.2c0-1.1,0.7-2.1,1.8-2.1c0.8,0,1.3,0.5,1.3,1.1c0,0.1,0,0.2,0,0.2
	c0,0.1-0.2,0.1-0.5,0.1H163.4z M164,51.5c0.7,0,0.9,0,1-0.1c0,0,0.1-0.1,0.1-0.2c0-0.3-0.2-0.6-0.7-0.6c-0.5,0-1,0.5-1,0.8
	c0,0,0,0,0.1,0H164z M167.8,50.5c0.1,0.2,0.1,0.5,0.1,0.7c0,0.1-0.2,0.1-0.2,0c-0.2-0.4-0.4-0.7-0.8-0.7c-0.4,0-0.6,0.2-0.6,0.6
	c0,0.4,0.4,0.6,0.7,0.8c0.5,0.3,0.9,0.6,0.9,1.2c0,0.7-0.6,1-1.3,1c-0.4,0-0.7-0.1-1-0.3c-0.1-0.2-0.1-0.6-0.1-0.9
	c0-0.1,0.2-0.1,0.2,0c0.2,0.5,0.4,0.9,1,0.9c0.3,0,0.6-0.2,0.6-0.6c0-0.4-0.4-0.6-0.7-0.8c-0.5-0.3-0.9-0.6-0.9-1.1
	c0-0.7,0.5-1,1.2-1C167.4,50.4,167.7,50.4,167.8,50.5z M171.8,52.2c0,1.1-0.8,2-1.9,2c-1.1,0-1.9-0.7-1.9-1.9c0-1.2,0.9-2,1.9-2
	C171,50.4,171.8,51.1,171.8,52.2z M169.9,50.6c-0.6,0-1.1,0.6-1.1,1.6c0,0.8,0.4,1.7,1.2,1.7s1.1-0.8,1.1-1.5
	C171,51.6,170.7,50.6,169.9,50.6z M173,52.7c0,0.6,0.2,1.1,0.8,1.1c0.2,0,0.5-0.1,0.7-0.3c0.1-0.1,0.2-0.2,0.2-0.5v-1.5
	c0-0.6-0.1-0.6-0.3-0.7l-0.1,0c-0.1,0-0.1-0.2,0-0.2c0.4,0,0.9-0.1,1.1-0.2c0,0,0.1,0,0.1,0.1c0,0.2,0,0.5,0,0.8v1.5
	c0,0.7,0,1,0.3,1c0.1,0,0.2,0,0.4,0c0.1,0,0.1,0.2,0,0.3c-0.4,0.1-0.9,0.2-1.2,0.3c0,0-0.1,0-0.1-0.1v-0.4c0-0.1,0-0.1-0.1-0.1
	c-0.3,0.2-0.7,0.5-1.3,0.5c-0.8,0-1.1-0.4-1.1-1.1v-1.5c0-0.6,0-0.7-0.3-0.8l-0.1,0c-0.1,0,0-0.2,0-0.2c0.4,0,0.8-0.1,1-0.2
	c0.1,0,0.1,0,0.1,0.1c0,0.2,0,0.3,0,0.8V52.7z M176.5,51.5c0-0.4,0-0.4-0.2-0.6l-0.1-0.1c0,0,0-0.1,0-0.2c0.2-0.1,0.7-0.3,0.9-0.4
	c0,0,0.1,0,0.1,0.1v0.5c0,0,0,0.1,0,0.1c0.3-0.3,0.7-0.5,1-0.5c0.2,0,0.4,0.1,0.4,0.4c0,0.3-0.2,0.4-0.4,0.4c-0.1,0-0.1,0-0.2-0.1
	c-0.1-0.1-0.3-0.1-0.4-0.1c-0.1,0-0.3,0.1-0.3,0.2c-0.1,0.1-0.1,0.4-0.1,0.7v1.2c0,0.7,0,0.8,0.4,0.8l0.3,0c0.1,0,0,0.2,0,0.2
	c-0.4,0-0.7,0-1,0c-0.3,0-0.6,0-0.8,0c-0.1,0-0.1-0.2,0-0.2l0.2,0c0.3-0.1,0.3-0.1,0.3-0.8V51.5z M181.4,50.5
	c0.1,0.1,0.1,0.2,0.1,0.4c0,0.2-0.1,0.3-0.2,0.3c0,0-0.1,0-0.1-0.1c-0.2-0.2-0.5-0.5-0.9-0.5c-0.6,0-1.3,0.5-1.3,1.5
	c0,0.7,0.5,1.6,1.5,1.6c0.5,0,0.8-0.2,1-0.5c0.1,0,0.2,0,0.2,0.1c-0.3,0.7-1,0.9-1.5,0.9c-0.5,0-0.9-0.2-1.3-0.5
	c-0.3-0.3-0.5-0.8-0.5-1.4c0-1,0.7-2,2.2-2C180.8,50.4,181.2,50.4,181.4,50.5z M182.3,51.7c-0.2,0-0.2,0-0.2,0.2
	c0,0.9,0.5,1.7,1.5,1.7c0.3,0,0.6-0.1,0.8-0.4c0.1,0,0.2,0,0.2,0.1c-0.3,0.6-1,0.8-1.4,0.8c-0.6,0-1.1-0.3-1.3-0.6
	c-0.3-0.4-0.4-0.8-0.4-1.2c0-1.1,0.7-2.1,1.8-2.1c0.8,0,1.3,0.5,1.3,1.1c0,0.1,0,0.2,0,0.2c0,0.1-0.2,0.1-0.5,0.1H182.3z
	 M182.9,51.5c0.7,0,0.9,0,1-0.1c0,0,0.1-0.1,0.1-0.2c0-0.3-0.2-0.6-0.7-0.6c-0.5,0-1,0.5-1,0.8c0,0,0,0,0.1,0H182.9z"/>
<g>
	<path class="st4" d="M191.6,63.5c0,0.9-0.7,1.6-1.6,1.6c-0.9,0-1.6-0.7-1.6-1.6c0-0.9,0.7-1.5,1.6-1.5
		C190.9,61.9,191.6,62.6,191.6,63.5z M188.8,63.5c0,0.7,0.5,1.2,1.2,1.2c0.7,0,1.2-0.5,1.2-1.2c0-0.7-0.5-1.2-1.2-1.2
		S188.8,62.8,188.8,63.5z M189.8,64.3h-0.4v-1.5c0.1,0,0.3,0,0.6,0c0.3,0,0.4,0,0.5,0.1c0.1,0.1,0.1,0.2,0.1,0.3
		c0,0.2-0.1,0.3-0.3,0.4v0c0.2,0.1,0.2,0.2,0.3,0.4c0,0.2,0.1,0.3,0.1,0.4h-0.4c0-0.1-0.1-0.2-0.1-0.4c0-0.2-0.1-0.2-0.3-0.2h-0.2
		V64.3z M189.8,63.4h0.2c0.2,0,0.4-0.1,0.4-0.2c0-0.1-0.1-0.2-0.3-0.2c-0.1,0-0.2,0-0.2,0V63.4z"/>
</g>
</svg>
